<?xml version="1.0" encoding="UTF-8"?>
<!-- Generated by Pixelmator Pro 3.6.14 -->
<svg width="110" height="110" viewBox="0 0 110 110" xmlns="http://www.w3.org/2000/svg">
    <path id="Path" fill="#000000" fill-rule="evenodd" stroke="none" d="M 14.5195 58.987999 C 15.6679 58.987999 16.6015 59.921585 16.6015 61.07 C 16.6015 62.218399 15.66791 63.152 14.5195 63.152 L 11.4023 63.152 C 8.5781 63.152 6.2851 60.859001 6.2851 58.034805 L 6.2851 51.9645 C 6.2851 49.140305 8.5781 46.847305 11.4023 46.847305 L 14.5195 46.847305 C 15.6679 46.847305 16.6015 47.780891 16.6015 48.929298 C 16.6015 50.077698 15.66791 51.011299 14.5195 51.011299 L 11.4023 51.011299 C 10.87496 51.011299 10.449181 51.43708 10.449181 51.964417 L 10.449181 58.034721 C 10.449181 58.562057 10.87496 58.987839 11.4023 58.987839 Z"/>
    <path id="path1" fill="#000000" fill-rule="evenodd" stroke="none" d="M 32.710999 51.012001 C 31.562599 51.012001 30.629 50.078415 30.629 48.93 C 30.629 47.781601 31.56259 46.848 32.710999 46.848 L 78.519997 46.848 C 79.668404 46.848 80.605904 47.781586 80.605904 48.93 C 80.605904 50.0784 79.67231 51.012001 78.519997 51.012001 Z"/>
    <path id="path2" fill="#000000" fill-rule="evenodd" stroke="none" d="M 96.25 51.012001 C 95.101601 51.012001 94.164101 50.078415 94.164101 48.93 C 94.164101 47.781601 95.097687 46.848 96.25 46.848 L 98.597702 46.848 C 101.421898 46.848 103.714897 49.140999 103.714897 51.965195 L 103.714897 58.0355 C 103.714897 60.859695 101.421898 63.152695 98.597702 63.152695 L 96.25 63.152695 C 95.101601 63.152695 94.164101 62.219109 94.164101 61.070702 C 94.164101 59.922302 95.097687 58.988701 96.25 58.988701 L 98.597702 58.988701 C 99.125038 58.988701 99.550819 58.56292 99.550819 58.035583 L 99.550819 51.965279 C 99.550819 51.437943 99.125038 51.012161 98.597702 51.012161 Z"/>
    <path id="path3" fill="#000000" fill-rule="evenodd" stroke="none" d="M 78.519997 58.987999 C 79.668404 58.987999 80.605904 59.921585 80.605904 61.07 C 80.605904 62.218399 79.67231 63.152 78.519997 63.152 L 33.028 63.152 C 31.879601 63.152 30.945999 62.218414 30.945999 61.07 C 30.945999 59.9216 31.879589 58.987999 33.028 58.987999 Z"/>
    <path id="path4" fill="#000000" fill-rule="evenodd" stroke="none" d="M 24.698999 41.854996 L 24.698999 68.147995 L 24.616968 68.972221 L 24.374779 69.745659 L 23.995869 70.444878 L 23.495869 71.050346 L 22.8904 71.550346 L 22.191179 71.92926 L 21.41774 72.167542 L 20.593519 72.253479 L 16.546619 72.253479 L 15.722399 72.167542 L 14.948959 71.92926 L 14.249739 71.550346 L 13.644269 71.050346 L 13.144269 70.444878 L 12.765359 69.745659 L 12.523169 68.972221 L 12.441137 68.147995 L 12.441137 41.854996 L 12.523169 41.030777 L 12.765359 40.257339 L 13.144269 39.558121 L 13.644269 38.952652 L 14.249739 38.452652 L 14.948959 38.073738 L 15.722399 37.835464 L 16.546619 37.749527 L 20.593519 37.749527 L 21.41774 37.835464 L 22.191179 38.073738 L 22.8904 38.452652 L 23.495869 38.952652 L 23.995869 39.558121 L 24.374779 40.257339 L 24.616968 41.030777 Z M 16.601299 41.913589 L 16.601299 68.085594 L 20.531 68.085594 L 20.531 41.913589 Z"/>
    <path id="path5" fill="#000000" fill-rule="evenodd" stroke="none" d="M 34.335999 35.155998 L 34.335999 74.847 C 34.335999 77.327499 32.324303 79.339203 29.8438 79.339203 L 25.027399 79.339203 C 22.5469 79.339203 20.5352 77.327499 20.5352 74.847 L 20.5352 35.155998 C 20.5352 32.675499 22.5469 30.663803 25.027399 30.663803 L 29.8438 30.663803 C 32.324303 30.663803 34.335999 32.675499 34.335999 35.155998 Z M 30.167999 35.155998 C 30.167999 34.976311 30.02347 34.831779 29.843781 34.831779 L 25.02738 34.831779 C 24.847691 34.831779 24.703159 34.976311 24.703159 35.155998 L 24.703159 74.847 C 24.703159 75.026688 24.847691 75.171219 25.02738 75.171219 L 29.843781 75.171219 C 30.02347 75.171219 30.167999 75.026688 30.167999 74.847 Z"/>
    <path id="path6" fill="#000000" fill-rule="evenodd" stroke="none" d="M 86.07 41.854996 L 86.155937 41.030777 L 86.394218 40.257339 L 86.773125 39.558121 L 87.273125 38.952652 L 87.878601 38.452652 L 88.57782 38.073738 L 89.351257 37.835464 L 90.175476 37.749527 L 94.222382 37.749527 L 95.0466 37.835464 L 95.820038 38.073738 L 96.519257 38.452652 L 97.124725 38.952652 L 97.624725 39.558121 L 98.003639 40.257339 L 98.245827 41.030777 L 98.327858 41.854996 L 98.327858 68.147995 L 98.245827 68.972221 L 98.003639 69.745659 L 97.624725 70.444878 L 97.124725 71.050346 L 96.519257 71.550346 L 95.820038 71.92926 L 95.0466 72.167542 L 94.222382 72.253479 L 90.175476 72.253479 L 89.351257 72.167542 L 88.57782 71.92926 L 87.878601 71.550346 L 87.273125 71.050346 L 86.773125 70.444878 L 86.394218 69.745659 L 86.155937 68.972221 L 86.07 68.147995 Z M 90.237999 41.913589 L 90.237999 68.085594 L 94.167702 68.085594 L 94.167702 41.913589 Z"/>
    <path id="path7" fill="#000000" fill-rule="evenodd" stroke="none" d="M 76.433998 35.155998 C 76.433998 32.675499 78.445702 30.663803 80.926201 30.663803 L 85.742599 30.663803 C 88.223099 30.663803 90.234802 32.675499 90.234802 35.155998 L 90.234802 74.847 C 90.234802 77.327499 88.223099 79.339203 85.742599 79.339203 L 80.926201 79.339203 C 78.445702 79.339203 76.433998 77.327499 76.433998 74.847 Z M 80.601997 35.155998 L 80.601997 74.847 C 80.601997 75.026688 80.746529 75.171219 80.926224 75.171219 L 85.742622 75.171219 C 85.92231 75.171219 86.066841 75.026688 86.066841 74.847 L 86.066841 35.155998 C 86.066841 34.976311 85.92231 34.831779 85.742622 34.831779 L 80.926224 34.831779 C 80.746529 34.831779 80.601997 34.976311 80.601997 35.155998 Z"/>
</svg>
